<svg width="61" height="64" viewBox="0 0 61 64" fill="none" xmlns="http://www.w3.org/2000/svg">
<path d="M34.5 37C40.0228 37 44.5 32.5228 44.5 27C44.5 21.4772 40.0228 17 34.5 17C28.9772 17 24.5 21.4772 24.5 27C24.5 32.5228 28.9772 37 34.5 37Z" stroke="#3C81BC" stroke-width="3" stroke-linecap="round" stroke-linejoin="round"/>
<path opacity="0.2" d="M57 2H12C11.337 2 10.7011 2.26339 10.2322 2.73223C9.76339 3.20107 9.5 3.83696 9.5 4.5V59.5C9.5 60.163 9.76339 60.7989 10.2322 61.2678C10.7011 61.7366 11.337 62 12 62H57C57.663 62 58.2989 61.7366 58.7678 61.2678C59.2366 60.7989 59.5 60.163 59.5 59.5V4.5C59.5 3.83696 59.2366 3.20107 58.7678 2.73223C58.2989 2.26339 57.663 2 57 2ZM34.5 37C32.5222 37 30.5888 36.4135 28.9443 35.3147C27.2998 34.2159 26.0181 32.6541 25.2612 30.8268C24.5043 28.9996 24.3063 26.9889 24.6921 25.0491C25.078 23.1093 26.0304 21.3275 27.4289 19.9289C28.8275 18.5304 30.6093 17.578 32.5491 17.1921C34.4889 16.8063 36.4996 17.0043 38.3268 17.7612C40.1541 18.5181 41.7159 19.7998 42.8147 21.4443C43.9135 23.0888 44.5 25.0222 44.5 27C44.5 29.6522 43.4464 32.1957 41.5711 34.0711C39.6957 35.9464 37.1522 37 34.5 37Z" fill="#3C81BC"/>
<path d="M2 25.751H9.5" stroke="#3C81BC" stroke-width="3" stroke-linecap="round" stroke-linejoin="round"/>
<path d="M2 13.25H9.5" stroke="#3C81BC" stroke-width="3" stroke-linecap="round" stroke-linejoin="round"/>
<path d="M2 38.249H9.5" stroke="#3C81BC" stroke-width="3" stroke-linecap="round" stroke-linejoin="round"/>
<path d="M2 50.75H9.5" stroke="#3C81BC" stroke-width="3" stroke-linecap="round" stroke-linejoin="round"/>
<path d="M19.499 44.501C21.2455 42.1723 23.5102 40.2822 26.1138 38.9805C28.7173 37.6787 31.5882 37.001 34.499 37.001C37.4099 37.001 40.2807 37.6787 42.8843 38.9805C45.4878 40.2822 47.7525 42.1723 49.499 44.501" stroke="#3C81BC" stroke-width="3" stroke-linecap="round" stroke-linejoin="round"/>
<path d="M59.501 59.5V4.5C59.501 3.11929 58.3817 2 57.001 2L12.001 2C10.6203 2 9.50098 3.11929 9.50098 4.5V59.5C9.50098 60.8807 10.6203 62 12.001 62H57.001C58.3817 62 59.501 60.8807 59.501 59.5Z" stroke="#3C81BC" stroke-width="3" stroke-linecap="round" stroke-linejoin="round"/>
</svg>
