<svg width="24" height="24" viewBox="0 0 24 24" fill="none" xmlns="http://www.w3.org/2000/svg">
<path d="M15 15.5H9V16.5C9 18.1569 10.3431 19.5 12 19.5C13.6569 19.5 15 18.1569 15 16.5V15.5Z" fill="#161616"/>
<path d="M5 17H19C19.5523 17 20 16.5523 20 16V15.4142C20 15.149 19.8946 14.8947 19.7071 14.7071L19.1963 14.1963C19.0706 14.0706 19 13.9001 19 13.7224V10C19 6.134 15.866 2.99999 12 3C8.134 3.00001 5 6.13401 5 10V13.7224C5 13.9002 4.9294 14.0706 4.80372 14.1963L4.29289 14.7071C4.10536 14.8947 4 15.149 4 15.4142V16C4 16.5523 4.44772 17 5 17Z" fill="#161616"/>
<circle cx="6" cy="5" r="4" fill="#00BE7E"/>
</svg>
