<svg width="100" height="101" viewBox="0 0 100 101" fill="none" xmlns="http://www.w3.org/2000/svg">
<g clip-path="url(#clip0_868_13845)">
<path d="M98.902 51.5985C98.902 74.9031 82.6004 94.4001 60.7783 99.3089C60.7783 99.3089 59.8847 97.2238 58.7823 97.2238C57.6799 97.2238 56.7863 100.033 56.7863 100.033C54.6757 100.326 52.5218 100.485 50.334 100.499C48.1462 100.514 49.4404 97.2238 48.338 97.2238C47.2356 97.2238 46.342 100.366 46.342 100.366C43.5771 100.162 40.8763 99.7272 38.2585 99.0821C37.5362 98.9041 37.0863 97.941 36.3771 97.7312C35.7571 97.548 34.8761 98.1216 34.2667 97.9147C14.9773 91.3644 1.09766 73.1023 1.09766 51.5985C1.09766 24.5905 22.9919 2.69629 49.9999 2.69629C57.2653 2.69629 64.1607 4.28072 70.3593 7.12284C72.3889 8.05337 74.1541 9.3418 76.0228 10.5306C77.6034 11.5362 79.312 12.4071 80.7625 13.5821C91.8284 22.5476 98.902 36.247 98.902 51.5985Z" fill="#012D4E"/>
<path d="M38.2588 35.6318V53.6906C38.2588 54.793 37.3652 55.6866 36.2628 55.6866C35.1604 55.6866 34.2668 54.793 34.2668 53.6906V37.6278H32.4029C31.3006 37.6278 30.4069 36.7341 30.4069 35.6318C30.4069 34.5294 31.3006 33.6357 32.4029 33.6357H36.2628C37.3652 33.6357 38.2588 34.5294 38.2588 35.6318ZM55.4906 60.285H51.6307C50.5283 60.285 49.6347 61.1787 49.6347 62.2811C49.6347 63.3834 50.5283 64.2771 51.6307 64.2771H53.4946V80.3399C53.4946 81.4423 54.3882 82.3359 55.4906 82.3359C56.593 82.3359 57.4866 81.4423 57.4866 80.3399V62.2811C57.4866 61.1787 56.593 60.285 55.4906 60.285ZM18.0309 60.285H14.1708C13.0684 60.285 12.1748 61.1787 12.1748 62.2811C12.1748 63.3834 13.0684 64.2771 14.1708 64.2771H16.0347V80.3399C16.0347 81.4423 16.9283 82.3359 18.0307 82.3359C19.1331 82.3359 20.0267 81.4423 20.0267 80.3399V62.2811C20.0269 61.1787 19.1331 60.285 18.0309 60.285ZM36.2628 86.6964H32.4029C31.3006 86.6964 30.4069 87.59 30.4069 88.6924C30.4069 89.7948 31.3006 90.6884 32.4029 90.6884H34.2668V97.9134C35.5736 98.3571 36.9051 98.7471 38.2588 99.0809V88.6924C38.2588 87.59 37.3652 86.6964 36.2628 86.6964ZM90.3189 33.6357H86.459C85.3566 33.6357 84.463 34.5294 84.463 35.6318C84.463 36.7341 85.3566 37.6278 86.459 37.6278H88.3229V53.6906C88.3229 54.793 89.2165 55.6866 90.3189 55.6866C91.4213 55.6866 92.3149 54.793 92.3149 53.6906V35.6318C92.3149 34.5294 91.4213 33.6357 90.3189 33.6357ZM73.8864 33.6357H70.0265C68.9241 33.6357 68.0305 34.5294 68.0305 35.6318C68.0305 36.7341 68.9241 37.6278 70.0265 37.6278H71.8904V53.6906C71.8904 54.793 72.784 55.6866 73.8864 55.6866C74.9888 55.6866 75.8824 54.793 75.8824 53.6906V35.6318C75.8824 34.5294 74.9888 33.6357 73.8864 33.6357Z" fill="#3C82AF"/>
<path d="M53.5609 56.0558C49.5808 56.0558 46.3427 52.8177 46.3427 48.8377V40.4862C46.3427 36.5061 49.5808 33.2678 53.5609 33.2678C57.5409 33.2678 60.779 36.5059 60.779 40.4862V48.8377C60.779 52.8177 57.5409 56.0558 53.5609 56.0558ZM53.5609 37.2598C51.7818 37.2598 50.3347 38.7071 50.3347 40.4862V48.8377C50.3347 50.6165 51.782 52.0638 53.5609 52.0638C55.3397 52.0638 56.787 50.6165 56.787 48.8377V40.4862C56.787 38.7071 55.3399 37.2598 53.5609 37.2598ZM16.101 56.0558C12.1209 56.0558 8.88281 52.8177 8.88281 48.8377V40.4862C8.88281 36.5061 12.1209 33.2678 16.101 33.2678C20.081 33.2678 23.3191 36.5059 23.3191 40.4862V48.8377C23.3191 52.8177 20.0812 56.0558 16.101 56.0558ZM16.101 37.2598C14.3219 37.2598 12.8748 38.7071 12.8748 40.4862V48.8377C12.8748 50.6165 14.3219 52.0638 16.101 52.0638C17.88 52.0638 19.3271 50.6165 19.3271 48.8377V40.4862C19.3271 38.7071 17.88 37.2598 16.101 37.2598ZM53.5609 86.3287C49.5808 86.3287 46.3427 89.5668 46.3427 93.5469V100.366C47.5503 100.455 48.7702 100.5 50.0006 100.5C50.112 100.5 50.2233 100.5 50.3347 100.499V93.5469C50.3347 91.768 51.782 90.3207 53.5609 90.3207C55.3397 90.3207 56.787 91.768 56.787 93.5469V100.033C58.1361 99.8458 59.4674 99.6035 60.779 99.3085V93.5469C60.779 89.5668 57.5409 86.3287 53.5609 86.3287ZM34.3331 82.3367C30.3531 82.3367 27.115 79.0985 27.115 75.1185V66.767C27.115 62.787 30.3531 59.5486 34.3331 59.5486C38.3132 59.5486 41.5513 62.7868 41.5513 66.767V75.1185C41.5513 79.0985 38.3132 82.3367 34.3331 82.3367ZM34.3331 63.5407C32.5541 63.5407 31.107 64.988 31.107 66.767V75.1185C31.107 76.8973 32.5541 78.3447 34.3331 78.3447C36.1122 78.3447 37.5593 76.8973 37.5593 75.1185V66.767C37.5593 64.988 36.112 63.5407 34.3331 63.5407ZM53.5609 29.1816C49.5808 29.1816 46.3427 25.9435 46.3427 21.9632V13.6117C46.3427 9.63168 49.5808 6.39355 53.5609 6.39355C57.5409 6.39355 60.779 9.63168 60.779 13.6117V21.9632C60.779 25.9435 57.5409 29.1816 53.5609 29.1816ZM53.5609 10.3856C51.7818 10.3856 50.3347 11.8329 50.3347 13.6117V21.9632C50.3347 23.7423 51.782 25.1896 53.5609 25.1896C55.3397 25.1896 56.787 23.7423 56.787 21.9632V13.6117C56.787 11.8329 55.3399 10.3856 53.5609 10.3856ZM66.3028 13.6117V21.9632C66.3028 25.9433 69.5409 29.1816 73.5209 29.1816C77.501 29.1816 80.7391 25.9435 80.7391 21.9632V13.6117C80.7391 13.5952 80.7389 13.5786 80.7387 13.562C77.5802 11.0063 74.097 8.83607 70.3607 7.1229C67.9601 8.29675 66.3028 10.7642 66.3028 13.6117ZM76.7471 13.6117V21.9632C76.7471 23.7423 75.3 25.1896 73.5209 25.1896C71.7419 25.1896 70.2948 23.7423 70.2948 21.9632V13.6117C70.2948 11.8329 71.7419 10.3856 73.5209 10.3856C75.3 10.3856 76.7471 11.8329 76.7471 13.6117Z" fill="#3C82AF"/>
<path d="M38.3239 24.4521C38.3239 26.6569 36.5367 28.4441 34.3319 28.4441C32.1271 28.4441 30.3398 26.6569 30.3398 24.4521C30.3398 22.2473 32.1271 20.4601 34.3319 20.4601C36.5367 20.4601 38.3239 22.2473 38.3239 24.4521ZM34.3319 16.4681C35.9854 16.4681 37.3259 15.1275 37.3259 13.4741C37.3259 11.8206 35.9854 10.48 34.3319 10.48C32.6784 10.48 31.3378 11.8206 31.3378 13.4741C31.3378 15.1275 32.6784 16.4681 34.3319 16.4681ZM34.3319 6.48802C35.9854 6.48802 37.3259 5.1475 37.3259 3.49401C37.3259 1.84052 35.9854 0.5 34.3319 0.5C32.6784 0.5 31.3378 1.84052 31.3378 3.49401C31.3378 5.1475 32.6784 6.48802 34.3319 6.48802ZM73.5197 68.3643C71.3149 68.3643 69.5277 66.577 69.5277 64.3723C69.5277 62.1675 71.3149 60.3802 73.5197 60.3802C75.7245 60.3802 77.5117 62.1675 77.5117 64.3723C77.5117 66.577 75.7245 68.3643 73.5197 68.3643ZM70.5257 75.3503C70.5257 77.0038 71.8662 78.3443 73.5197 78.3443C75.1732 78.3443 76.5137 77.0038 76.5137 75.3503C76.5137 73.6968 75.1732 72.3563 73.5197 72.3563C71.8662 72.3563 70.5257 73.6968 70.5257 75.3503ZM70.5257 85.3303C70.5257 86.9838 71.8662 88.3243 73.5197 88.3243C75.1732 88.3243 76.5137 86.9838 76.5137 85.3303C76.5137 83.6768 75.1732 82.3363 73.5197 82.3363C71.8662 82.3363 70.5257 83.6768 70.5257 85.3303Z" fill="#3C82AF"/>
<path d="M38.3239 24.4521C38.3239 24.9707 38.2251 25.4659 38.0452 25.9204C37.5907 26.1002 37.0953 26.199 36.577 26.199C34.3722 26.199 32.585 24.4118 32.585 22.207C32.585 21.6884 32.6838 21.1932 32.8636 20.7387C33.3181 20.5589 33.8135 20.4601 34.3319 20.4601C36.5367 20.4601 38.3239 22.2473 38.3239 24.4521ZM34.3319 10.48C34.1003 10.48 33.8752 10.5064 33.6588 10.5561C33.6091 10.7725 33.5828 10.9978 33.5828 11.2291C33.5828 12.8826 34.9233 14.2232 36.5768 14.2232C36.8083 14.2232 37.0335 14.1968 37.2498 14.1471C37.2995 13.9307 37.3259 13.7054 37.3259 13.4741C37.3259 11.8206 35.9854 10.48 34.3319 10.48ZM36.5768 4.24311C36.8083 4.24311 37.0335 4.21677 37.2498 4.16707C37.2995 3.9507 37.3259 3.72535 37.3259 3.49401C37.3259 1.84052 35.9854 0.5 34.3319 0.5C34.1003 0.5 33.8752 0.526347 33.6588 0.576048C33.6091 0.792415 33.5828 1.01776 33.5828 1.2491C33.5828 2.90259 34.9233 4.24311 36.5768 4.24311ZM77.5117 64.3723C77.5117 63.8537 77.4129 63.3585 77.2331 62.904C76.7786 62.7242 76.2831 62.6253 75.7648 62.6253C73.56 62.6253 71.7728 64.4126 71.7728 66.6174C71.7728 67.1359 71.8716 67.6311 72.0514 68.0856C72.5059 68.2655 73.0013 68.3643 73.5197 68.3643C75.7245 68.3643 77.5117 66.577 77.5117 64.3723ZM76.5137 75.3503C76.5137 75.1188 76.4873 74.8936 76.4376 74.6772C76.2213 74.6275 75.9959 74.6012 75.7646 74.6012C74.1111 74.6012 72.7706 75.9417 72.7706 77.5952C72.7706 77.8267 72.7969 78.0519 72.8466 78.2683C73.063 78.318 73.2883 78.3443 73.5197 78.3443C75.1732 78.3443 76.5137 77.0038 76.5137 75.3503ZM72.7706 87.5752C72.7706 87.8068 72.7969 88.0319 72.8466 88.2483C73.063 88.298 73.2883 88.3243 73.5197 88.3243C75.1732 88.3243 76.5137 86.9838 76.5137 85.3303C76.5137 85.0988 76.4873 84.8736 76.4376 84.6573C76.2213 84.6076 75.9959 84.5812 75.7646 84.5812C74.1111 84.5812 72.7706 85.9218 72.7706 87.5752Z" fill="#3C82AF"/>
</g>
<defs>
<clipPath id="clip0_868_13845">
<rect width="100" height="100" fill="white" transform="translate(0 0.5)"/>
</clipPath>
</defs>
</svg>
