<svg width="100" height="101" viewBox="0 0 100 101" fill="none" xmlns="http://www.w3.org/2000/svg">
<path d="M77.9932 91.9461L20.709 92.0324V70.7893C20.709 64.6328 24.3395 59.223 29.6037 57.5353L54.1332 49.6709L78.6627 57.5353C83.927 59.223 87.5574 64.6328 87.5574 70.7893V82.3672C87.5574 87.6518 83.2777 91.9381 77.9932 91.9461Z" fill="#1E608B"/>
<path d="M69.3568 22.4756V34.3617C69.3568 42.8166 62.5029 49.6705 54.048 49.6705C45.5932 49.6705 38.7393 42.8166 38.7393 34.3617V22.4756L46.8559 17.3848L69.3568 22.4756Z" fill="#FFC0A6"/>
<path d="M65.6174 44.2924C64.7297 43.359 63.477 42.7764 62.0871 42.7764H41.1846C43.9227 46.9287 48.6258 49.6705 53.9715 49.6705C58.6355 49.6705 62.8096 47.5822 65.6174 44.2924Z" fill="#FFA992"/>
<path d="M87.557 82.367V70.7891C87.557 65.7055 85.0803 61.1334 81.2537 58.7432C78.2826 61.4133 76.5857 65.2197 76.5857 69.2145V72.5834V81.5018H67.0361V91.8305H79.466C84.0502 91.1154 87.557 87.1504 87.557 82.367Z" fill="#1E608B"/>
<path d="M54.0355 49.6709L30.127 57.3363C46.6627 60.5451 59.2867 74.7098 60.1359 91.9729L70.5303 91.9572C70.5543 91.7479 70.5678 91.5354 70.5678 91.3195V54.9713L54.0355 49.6709Z" fill="#114C73"/>
<path d="M70.5689 91.3193V81.502H67.0371V91.8307H70.5424C70.5582 91.6621 70.5689 91.4922 70.5689 91.3193Z" fill="#114C73"/>
<path d="M94.0631 96.8703H61.4844L67.0361 91.8301H98.4877V92.4457C98.4877 94.8893 96.5066 96.8703 94.0631 96.8703Z" fill="#4F5166"/>
<path d="M61.4842 96.8705H6.68047C3.82578 96.8705 1.51172 94.5564 1.51172 91.7018V51.1383C1.51172 48.4473 3.69316 46.2656 6.38438 46.2656H62.1635C64.8545 46.2656 67.0361 48.4471 67.0361 51.1383V91.3187C67.0359 94.385 64.5504 96.8705 61.4842 96.8705Z" fill="#5B5E6E"/>
<path d="M62.1633 46.2656H6.38438C3.69336 46.2656 1.51172 48.4471 1.51172 51.1383V56.6514H19.4725C40.0053 56.6514 56.6504 73.2965 56.6504 93.8293V96.8707H61.4842C64.5504 96.8707 67.0359 94.3852 67.0359 91.3189V51.1383C67.0359 48.4473 64.8543 46.2656 62.1633 46.2656Z" fill="#4F5166"/>
<path d="M34.2732 76.4068C36.9456 76.4068 39.1119 74.2405 39.1119 71.5682C39.1119 68.8958 36.9456 66.7295 34.2732 66.7295C31.6009 66.7295 29.4346 68.8958 29.4346 71.5682C29.4346 74.2405 31.6009 76.4068 34.2732 76.4068Z" fill="white"/>
<path d="M41.2117 13.1504C40.4963 14.2965 39.5358 16.143 39.0274 18.5934C38.5864 20.7184 38.6426 22.5404 38.7803 23.7957C40.5026 23.3707 41.8465 22.7623 42.7776 22.2617C43.1451 22.0643 44.9614 21.0703 46.8561 19.235L41.2117 13.1504Z" fill="#4F5166"/>
<path d="M73.9683 21.1601C72.7629 16.6947 70.7615 12.4429 67.5057 9.29368C66.4504 8.27297 62.4848 4.43704 56.6154 4.13372C56.6154 4.13372 50.491 3.81731 45.2025 8.3175C43.607 9.67512 42.2934 11.3212 41.2109 13.1499C46.1332 20.1925 53.5178 24.671 61.7746 24.671C63.808 24.671 68.0564 24.0509 70.0865 22.7187L73.9683 21.1601Z" fill="#5B5E6E"/>
<path d="M71.5039 33.4133H69.2793V24.5928H71.5039C72.6855 24.5928 73.6436 25.5508 73.6436 26.7324V31.2734C73.6436 32.4555 72.6855 33.4133 71.5039 33.4133Z" fill="#FFA992"/>
<path d="M36.4131 24.5938H38.7521V33.4143H36.4131C35.2314 33.4143 34.2734 32.4562 34.2734 31.2746V26.7336C34.2734 25.5516 35.2314 24.5938 36.4131 24.5938Z" fill="#FFA992"/>
<path d="M47.4145 33.7674C48.166 33.7674 48.7752 33.1582 48.7752 32.4066C48.7752 31.6551 48.166 31.0459 47.4145 31.0459C46.6629 31.0459 46.0537 31.6551 46.0537 32.4066C46.0537 33.1582 46.6629 33.7674 47.4145 33.7674Z" fill="black"/>
<path d="M59.6625 33.7674C60.414 33.7674 61.0232 33.1582 61.0232 32.4066C61.0232 31.6551 60.414 31.0459 59.6625 31.0459C58.911 31.0459 58.3018 31.6551 58.3018 32.4066C58.3018 33.1582 58.911 33.7674 59.6625 33.7674Z" fill="black"/>
<path d="M48.6418 41.6668C49.9912 43.333 51.994 44.2887 54.1362 44.2887C56.2907 44.2887 58.3006 43.324 59.6504 41.6422C60.1731 40.9908 60.069 40.0391 59.4176 39.5164C58.7663 38.9938 57.8147 39.0981 57.2918 39.7492C56.519 40.7121 55.3688 41.2645 54.1362 41.2645C52.9106 41.2645 51.7645 40.7174 50.992 39.7635C50.4664 39.1145 49.5141 39.0145 48.8653 39.5401C48.2161 40.0658 48.1162 41.018 48.6418 41.6668Z" fill="black"/>
<path d="M1.51211 83.2285C2.34727 83.2285 3.02422 82.5516 3.02422 81.7164V51.1387C3.02422 49.2857 4.53164 47.7781 6.38477 47.7781H36.6936C37.5287 47.7781 38.2057 47.1012 38.2057 46.266C38.2057 45.4309 37.5287 44.7539 36.6936 44.7539H6.38477C2.86426 44.7539 0 47.618 0 51.1387V81.7164C0 82.5516 0.676953 83.2285 1.51211 83.2285Z" fill="black"/>
<path d="M98.4879 90.3188H85.6434C85.7014 90.2641 85.7607 90.2113 85.8178 90.1551C87.9145 88.0901 89.0693 85.3244 89.0693 82.3674V70.7895C89.0693 69.9543 88.3924 69.2774 87.5572 69.2774C86.7221 69.2774 86.0451 69.9543 86.0451 70.7895V82.3674C86.0451 86.8194 82.5072 90.3119 77.9906 90.3188H68.5482V83.0143H76.5859C77.4211 83.0143 78.098 82.3373 78.098 81.5022V72.5838C78.098 71.7487 77.4211 71.0717 76.5859 71.0717C75.7508 71.0717 75.0738 71.7487 75.0738 72.5838V79.9901H68.5482V55.8807L78.2008 58.9754C81.3264 59.9776 83.8617 62.5039 85.1572 65.9071C85.3869 66.5106 85.9611 66.8817 86.5707 66.8817C86.7494 66.8817 86.9313 66.8498 87.1084 66.7823C87.8889 66.4852 88.2809 65.6117 87.9836 64.8313C86.3592 60.5639 83.1301 57.3799 79.124 56.0955L68.5482 52.7049V51.1391C68.5482 49.0981 67.5846 47.2793 66.0895 46.1096C69.0205 43.117 70.7201 39.1653 70.8586 34.9256H71.5051C73.5186 34.9256 75.1568 33.2873 75.1568 31.2739V26.7326C75.1568 24.7352 73.5441 23.1092 71.5527 23.0832C71.6508 22.6885 71.5918 22.2561 71.3512 21.8893C70.893 21.191 69.9553 20.9967 69.2574 21.4547C67.6482 22.5108 63.8148 23.1592 61.7752 23.1592C56.7779 23.1592 51.9646 21.3739 47.8785 18.1139L43.1102 12.9737C44.0225 11.6082 45.0523 10.4317 46.183 9.46956C50.9193 5.43928 56.4871 5.64182 56.5381 5.64436C60.057 5.826 63.3936 7.41975 66.4551 10.3811C69.1832 13.0199 71.2201 16.7793 72.509 21.5547C72.7266 22.361 73.5564 22.8387 74.3629 22.6205C75.1691 22.403 75.6463 21.5729 75.4287 20.7666C73.9953 15.4569 71.6836 11.2313 68.5576 8.20745C64.9555 4.72327 60.9641 2.84495 56.6941 2.62424C56.4201 2.61057 49.9041 2.33245 44.2234 7.16663C42.5926 8.55432 41.1488 10.2975 39.9313 12.3467C39.9307 12.3477 39.9297 12.3487 39.9291 12.3498C39.9268 12.3537 39.9244 12.3578 39.9221 12.3617C39.9184 12.368 39.9143 12.374 39.9105 12.3803C39.9098 12.3817 39.9092 12.3834 39.9084 12.3848C38.7762 14.2074 37.9813 16.1924 37.5469 18.2864C37.2195 19.8645 37.1066 21.4735 37.2047 23.0813H36.4143C34.4008 23.0813 32.7625 24.7196 32.7625 26.733V31.2742C32.7625 33.2877 34.4008 34.926 36.4143 34.926H37.2377C37.3953 39.6994 39.551 44.143 43.2158 47.2297C43.4932 47.5651 43.9125 47.7789 44.3816 47.7789H62.1639C62.4055 47.7789 62.6406 47.8057 62.8678 47.8545C62.9793 47.8998 63.0951 47.9315 63.2135 47.9492C64.5535 48.3914 65.5242 49.6533 65.5242 51.1395V53.7893C65.5242 53.7946 65.5242 53.7998 65.5242 53.8051V81.5026V91.8313V91.9321V95.3594H6.68086C4.66465 95.3594 3.02422 93.719 3.02422 91.7028V87.9668C3.02422 87.1317 2.34727 86.4547 1.51211 86.4547C0.676953 86.4547 0 87.1315 0 87.9666V91.7026C0 95.3864 2.99707 98.3834 6.68086 98.3834H67.0363H94.0633C97.3369 98.3834 100 95.7201 100 92.4467V91.8311C100 90.9957 99.323 90.3188 98.4879 90.3188ZM72.133 26.7326V31.2739C72.133 31.6199 71.8514 31.9014 71.5055 31.9014H70.8689V26.1051H71.5055C71.8514 26.1049 72.133 26.3865 72.133 26.7326ZM40.1936 21.777C40.2061 20.8112 40.3107 19.8489 40.5076 18.9002C40.7178 17.8867 41.034 16.9051 41.4434 15.961C42.4172 17.1545 43.4562 18.2537 44.5523 19.2528C43.4414 20.1467 42.4938 20.6973 42.0613 20.9295C41.4615 21.252 40.8371 21.5352 40.1936 21.777ZM35.7863 31.2737V26.7324C35.7863 26.3864 36.068 26.1049 36.4139 26.1049H37.2271V31.9012H36.4139C36.0678 31.9012 35.7863 31.6197 35.7863 31.2737ZM40.2514 34.3621V33.6071C40.2596 33.5434 40.2652 33.4791 40.2652 33.4133V24.9492C41.3877 24.5977 42.4695 24.1436 43.4932 23.5934C44.0715 23.2826 45.4223 22.4955 46.9361 21.2031C51.3451 24.4282 56.4602 26.1832 61.7754 26.1832C63.2658 26.1832 65.6465 25.8977 67.7688 25.301V33.4133C67.7688 33.5781 67.7961 33.7365 67.8449 33.8852V34.3621C67.8449 38.4182 66.1041 42.1889 63.0482 44.8168C62.759 44.7766 62.4641 44.7541 62.1641 44.7541H44.9805C41.9715 42.1283 40.2514 38.3696 40.2514 34.3621ZM94.0633 95.359H68.5484V93.3428H77.993C77.9938 93.3428 77.9945 93.3428 77.9953 93.3428H96.8348C96.4559 94.5117 95.3566 95.359 94.0633 95.359Z" fill="black"/>
<path d="M27.9238 71.5686C27.9238 75.0703 30.7728 77.9193 34.2746 77.9193C37.7764 77.9193 40.6254 75.0703 40.6254 71.5686C40.6254 68.0668 37.7764 65.2178 34.2746 65.2178C30.7728 65.2178 27.9238 68.0666 27.9238 71.5686ZM37.6012 71.5686C37.6012 73.4029 36.1088 74.8951 34.2746 74.8951C32.4404 74.8951 30.948 73.4027 30.948 71.5686C30.948 69.7344 32.4404 68.242 34.2746 68.242C36.1088 68.242 37.6012 69.7342 37.6012 71.5686Z" fill="black"/>
</svg>
