<svg width="100" height="101" viewBox="0 0 100 101" fill="none" xmlns="http://www.w3.org/2000/svg">
<path d="M97.8516 50.5C97.8516 76.9277 76.4277 98.3516 50 98.3516C23.5723 98.3516 2.14844 76.9277 2.14844 50.5C2.14844 24.0723 23.5723 2.64844 50 2.64844C76.4277 2.64844 97.8516 24.0723 97.8516 50.5Z" fill="#012D4E"/>
<path d="M97.0703 59.2891H2.92969C1.31172 59.2891 0 57.9773 0 56.3594C0 54.7414 1.31172 53.4297 2.92969 53.4297H97.0703C98.6883 53.4297 100 54.7414 100 56.3594C100 57.9773 98.6883 59.2891 97.0703 59.2891Z" fill="#DF3D9B"/>
<path d="M97.0703 59.2891H12.207C10.5891 59.2891 9.27734 57.9773 9.27734 56.3594C9.27734 54.7414 10.5891 53.4297 12.207 53.4297H97.0703C98.6883 53.4297 100 54.7414 100 56.3594C100 57.9773 98.6883 59.2891 97.0703 59.2891Z" fill="#FC5E93"/>
<path d="M42.0098 36.1943C40.1092 38.2265 39.0625 40.879 39.0625 43.6634V49.3279C39.0625 50.4064 38.1881 51.281 37.1094 51.281C36.0307 51.281 35.1562 50.4064 35.1562 49.3279V43.6634C35.1562 39.8847 36.577 36.2847 39.1568 33.5263C39.5695 33.0849 39.7842 32.4751 39.7455 31.8532C39.6572 30.4321 38.5387 29.9507 38.198 29.837C37.8541 29.7226 36.6602 29.4333 35.7271 30.5275C32.84 33.9122 31.25 38.2308 31.25 42.6868V53.7546H27.3438V42.6868C27.3438 37.3025 29.2654 32.0837 32.7549 27.9925C34.4043 26.0587 37.026 25.3282 39.4342 26.1316C41.8715 26.9448 43.4848 29.0443 43.6443 31.6111C43.7492 33.3007 43.1535 34.9714 42.0098 36.1943ZM50 63.1946C52.8477 63.1946 55.2943 61.4443 56.3205 58.9628H51.3414C50.9393 59.1708 50.4832 59.2884 50 59.2884C49.517 59.2884 49.0607 59.1708 48.6586 58.9628H43.6795C44.7057 61.4443 47.1523 63.1946 50 63.1946ZM70.7031 40.7337C69.6246 40.7337 68.75 41.6083 68.75 42.6868V53.7546H72.6562V42.6868C72.6562 41.6083 71.7816 40.7337 70.7031 40.7337ZM50 80.9681C51.0785 80.9681 51.9531 80.0935 51.9531 79.015C51.9531 77.9364 51.0785 77.0618 50 77.0618C39.8791 77.0618 31.6055 69.0013 31.2613 58.9628H27.3531C27.6988 71.1558 37.725 80.9681 50 80.9681ZM52.9633 24.1695C59.275 25.1706 64.7543 29.4566 67.2629 35.355C67.685 36.3474 68.8313 36.8103 69.8246 36.3878C70.8172 35.9657 71.2797 34.8189 70.8574 33.8261C67.8268 26.7003 61.2047 21.5216 53.5754 20.3116C52.6504 20.1648 51.9531 19.3372 51.9531 18.3866C51.9531 17.8091 52.2053 17.2624 52.6449 16.8866C52.8949 16.673 53.4258 16.3318 54.1719 16.4497C67.1459 18.4952 76.5625 29.5296 76.5625 42.6868V53.7546H80.4688V42.6868C80.4688 35.3849 77.8459 28.3218 73.0834 22.7989C68.3715 17.3343 61.8713 13.7091 54.7805 12.5911C53.1051 12.3273 51.402 12.8101 50.107 13.9173C48.7977 15.0362 48.0469 16.6654 48.0469 18.3866C48.0469 21.2853 50.1145 23.7173 52.9633 24.1695ZM59.5791 78.6247C59.884 78.6247 60.1934 78.5532 60.4822 78.4021C67.7984 74.5779 72.4146 67.1718 72.6471 58.9628H68.7389C68.5078 65.7122 64.6955 71.7919 58.6725 74.9402C57.7164 75.44 57.3467 76.62 57.8465 77.5759C58.1951 78.2431 58.875 78.6247 59.5791 78.6247ZM77.9779 64.1902C76.9402 63.8962 75.8607 64.5015 75.568 65.5396C72.3566 76.9236 61.8428 84.8743 50 84.8743C35.5711 84.8743 23.7924 73.3099 23.4455 58.9628H19.5383C19.8859 75.464 33.417 88.7806 50 88.7806C56.773 88.7806 63.1854 86.6052 68.5438 82.4896C73.7313 78.5054 77.5609 72.8622 79.3273 66.6001C79.6203 65.5618 79.016 64.4829 77.9779 64.1902ZM76.6738 58.9628C76.942 59.7214 77.6654 60.265 78.5156 60.265C79.3658 60.265 80.0893 59.7214 80.3574 58.9628H76.6738ZM23.4375 53.7546V42.6868C23.4375 31.213 30.7486 21.0788 41.6305 17.4693C42.6543 17.1298 43.209 16.0245 42.8693 15.0005C42.5297 13.9767 41.4242 13.4218 40.4006 13.7616C27.918 17.9025 19.5312 29.5263 19.5312 42.6868V53.7546H23.4375ZM64.7551 58.9628H60.8166C60.0283 64.2247 55.4781 68.2728 50 68.2728C44.5221 68.2728 39.9717 64.2247 39.1834 58.9628H35.2449C36.058 66.3849 42.365 72.179 50 72.179C57.635 72.179 63.942 66.3849 64.7551 58.9628ZM41.6709 23.9265L48.5068 32.032C48.8779 32.472 49.4242 32.7259 50 32.7259C56.0311 32.7259 60.9375 37.6323 60.9375 43.6634V45.3236C60.9375 46.4544 60.0176 47.3743 58.8869 47.3743C57.7561 47.3741 56.8359 46.4542 56.8359 45.3236V44.64C56.8359 40.8706 53.7693 37.804 50 37.804C46.2307 37.804 43.1641 40.8706 43.1641 44.64V53.7546H47.0703V44.64C47.0703 43.0245 48.3846 41.7103 50 41.7103C51.6154 41.7103 52.9297 43.0245 52.9297 44.64V45.3236C52.9297 48.6079 55.602 51.2804 58.8867 51.2806C62.1713 51.2806 64.8438 48.6081 64.8438 45.3236V43.6634C64.8438 35.7917 58.6844 29.3316 50.932 28.8486L44.657 21.4079C43.9613 20.5833 42.7291 20.4788 41.9047 21.1741C41.0803 21.8696 40.9756 23.1021 41.6709 23.9265Z" fill="#3C82AF"/>
<path d="M80.4686 42.6868V58.3118C80.4686 59.3904 79.5939 60.265 78.5154 60.265C77.4369 60.265 76.5623 59.3904 76.5623 58.3118V42.6868C76.5623 29.5296 67.1457 18.4952 54.1717 16.4497C53.4256 16.3318 52.8947 16.6732 52.6447 16.8866C52.2051 17.2624 51.9529 17.8091 51.9529 18.3866C51.9529 19.3372 52.6502 20.1648 53.5752 20.3114C61.2047 21.5214 67.8268 26.7001 70.8572 33.8259C71.2795 34.8187 70.817 35.9655 69.8244 36.3876C68.8311 36.8101 67.6848 36.3472 67.2627 35.3548C64.7541 29.4566 59.275 25.1704 52.9631 24.1693C50.1143 23.7173 48.0467 21.2853 48.0467 18.3866C48.0467 16.6654 48.7975 15.0362 50.1066 13.9173C51.4016 12.8101 53.1047 12.3273 54.7801 12.5911C61.8709 13.7091 68.3711 17.3341 73.083 22.7989C77.8457 28.3218 80.4686 35.3849 80.4686 42.6868ZM72.6561 42.6868C72.6561 41.6083 71.7814 40.7337 70.7029 40.7337C69.6244 40.7337 68.7498 41.6083 68.7498 42.6868V58.3118C68.7498 65.3195 64.8883 71.6911 58.6723 74.9404C57.773 75.4103 57.3926 76.4823 57.7664 77.4034C58.8408 77.6741 59.9295 77.9087 61.0314 78.1054C68.2182 74.0974 72.6561 66.5702 72.6561 58.3118V42.6868ZM64.8436 57.3353C64.8436 56.2568 63.9689 55.3821 62.8904 55.3821C61.8119 55.3821 60.9373 56.2568 60.9373 57.3353C60.9373 63.3663 56.0309 68.2728 49.9998 68.2728C43.9689 68.2728 39.0623 63.3663 39.0623 57.3353C39.0623 56.2568 38.1879 55.3821 37.1092 55.3821C36.0305 55.3821 35.1561 56.2568 35.1561 57.3353C35.1561 65.52 41.8148 72.179 49.9998 72.179C58.1846 72.179 64.8436 65.52 64.8436 57.3353ZM31.2498 42.6868C31.2498 38.2308 32.8398 33.9122 35.7268 30.5273C36.6598 29.4329 37.8539 29.7224 38.1977 29.8368C38.5383 29.9505 39.6568 30.432 39.7451 31.853C39.7832 32.4642 39.5768 33.0636 39.1779 33.5029C36.7031 36.23 35.1561 39.6685 35.1561 43.3511V49.2609C35.1561 50.3011 35.941 51.2095 36.9793 51.2767C38.1168 51.3503 39.0623 50.4493 39.0623 49.3279V43.6075C39.0623 40.8279 40.1787 38.1966 42.0547 36.1454C43.1689 34.9273 43.7477 33.2784 43.6439 31.6109C43.4844 29.0441 41.8711 26.9446 39.4338 26.1314C37.0256 25.3282 34.4039 26.0585 32.7545 27.9923C29.2652 32.0837 27.3436 37.3025 27.3436 42.6868V53.6638C28.266 55.3761 29.2898 57.0257 30.4068 58.6048C30.6695 58.9763 31.25 58.7822 31.2498 58.3273C31.2498 58.3222 31.2498 58.3169 31.2498 58.3118V42.6868ZM77.9777 64.1902C76.94 63.8962 75.8605 64.5015 75.5678 65.5396C74.068 70.8562 70.9754 75.4239 66.8984 78.7827C67.7592 78.8288 68.6262 78.8521 69.4984 78.8521C70.5355 78.8521 71.5648 78.8191 72.5854 78.7542C75.7234 75.2796 78.058 71.0997 79.3271 66.6001C79.6201 65.5618 79.0158 64.4829 77.9777 64.1902ZM41.6303 17.4693C42.6541 17.1298 43.2088 16.0245 42.8691 15.0005C42.5295 13.9767 41.424 13.4218 40.4004 13.7616C31.6354 16.6691 24.89 23.2663 21.6494 31.4943C21.6932 35.8294 22.3135 40.0265 23.4373 44.0124V42.6868C23.4373 31.213 30.7484 21.0788 41.6303 17.4693ZM41.6707 23.9265L48.5066 32.032C48.8777 32.472 49.424 32.7259 49.9998 32.7259C56.0309 32.7259 60.9373 37.6323 60.9373 43.6634V45.3236C60.9373 46.4544 60.0174 47.3743 58.8867 47.3743C57.7559 47.3741 56.8357 46.4542 56.8357 45.3236V44.64C56.8357 40.8706 53.7691 37.804 49.9998 37.804C46.2305 37.804 43.1639 40.8706 43.1639 44.64V56.3587C43.1639 60.128 46.2305 63.1946 49.9998 63.1946C53.7691 63.1946 56.8357 60.128 56.8357 56.3587C56.8357 55.2802 55.9611 54.4056 54.8826 54.4056C53.8041 54.4056 52.9295 55.2802 52.9295 56.3587C52.9295 57.9741 51.6152 59.2884 49.9998 59.2884C48.3844 59.2884 47.0701 57.9741 47.0701 56.3587V44.64C47.0701 43.0245 48.3844 41.7103 49.9998 41.7103C51.6152 41.7103 52.9295 43.0245 52.9295 44.64V45.3236C52.9295 48.6079 55.6018 51.2804 58.8865 51.2806C62.1711 51.2806 64.8436 48.6081 64.8436 45.3236V43.6634C64.8436 35.7917 58.6842 29.3316 50.9318 28.8486L44.6568 21.4079C43.9611 20.5833 42.7289 20.4788 41.9045 21.1741C41.0801 21.8696 40.9754 23.1021 41.6707 23.9265Z" fill="#3C82AF"/>
<path d="M31.25 58.3125C31.25 58.64 31.2584 58.9656 31.2752 59.2891H27.3646C27.3508 58.9652 27.3438 58.6396 27.3438 58.3125V53.4297H31.25V58.3125ZM68.75 58.3125C68.75 58.6395 68.7416 58.965 68.725 59.2891H72.6355C72.6494 58.9648 72.6562 58.6393 72.6562 58.3125V53.4297H68.75V58.3125ZM76.5625 53.4297V58.3125C76.5625 58.6682 76.6576 59.0018 76.8238 59.2891H80.2072C80.3734 59.0018 80.4686 58.6682 80.4686 58.3125V53.4297H76.5625ZM23.4375 53.4297H19.5312V58.3125C19.5312 58.6393 19.5365 58.9648 19.5467 59.2891H23.4553C23.4436 58.965 23.4375 58.6395 23.4375 58.3125V53.4297ZM62.8906 55.3828C61.8121 55.3828 60.9375 56.2574 60.9375 57.3359C60.9375 58.0025 60.8775 58.6551 60.7629 59.2891H64.7158C64.8002 58.6498 64.8438 57.9979 64.8438 57.3359C64.8438 56.2574 63.9691 55.3828 62.8906 55.3828ZM37.1094 55.3828C36.0307 55.3828 35.1562 56.2574 35.1562 57.3359C35.1562 57.9979 35.1998 58.6498 35.2842 59.2891H39.2371C39.1223 58.6551 39.0625 58.0025 39.0625 57.3359C39.0625 56.2574 38.1881 55.3828 37.1094 55.3828ZM47.0703 56.3594V53.4297H43.1641V56.3594C43.1641 57.4072 43.4012 58.4006 43.8242 59.2891H50C48.3846 59.2891 47.0703 57.9748 47.0703 56.3594ZM54.8828 54.4062C53.8043 54.4062 52.9297 55.2809 52.9297 56.3594C52.9297 57.9748 51.6154 59.2891 50 59.2891H56.1758C56.599 58.4006 56.8359 57.4072 56.8359 56.3594C56.8359 55.2809 55.9613 54.4062 54.8828 54.4062Z" fill="#D3F1F5"/>
</svg>
