<svg width="21" height="21" viewBox="0 0 21 21" fill="none" xmlns="http://www.w3.org/2000/svg">
<mask id="mask0_240_6276" style="mask-type:alpha" maskUnits="userSpaceOnUse" x="1" y="0" width="20" height="21">
<path fill-rule="evenodd" clip-rule="evenodd" d="M8.99807 0.944885C4.79452 0.944885 1.38098 4.32538 1.38098 8.50267C1.38098 12.68 4.79452 16.0604 8.99807 16.0604C10.5653 16.0604 12.0231 15.5904 13.2347 14.7845L18.2039 19.7127C18.7401 20.2445 19.6079 20.2445 20.1441 19.7127C20.6822 19.1791 20.6822 18.3125 20.1441 17.7788L15.2067 12.8821C16.0933 11.6468 16.6152 10.1349 16.6152 8.50267C16.6152 4.32538 13.2016 0.944885 8.99807 0.944885ZM4.12827 8.50267C4.12827 5.84044 6.3053 3.67641 8.99807 3.67641C11.6908 3.67641 13.8679 5.84044 13.8679 8.50267C13.8679 11.1649 11.6908 13.3289 8.99807 13.3289C6.3053 13.3289 4.12827 11.1649 4.12827 8.50267Z" fill="#006FFD"/>
</mask>
<g mask="url(#mask0_240_6276)">
<rect x="0.964355" y="0.528198" width="20" height="20" fill="#2F3036"/>
</g>
</svg>
