<svg width="21" height="20" viewBox="0 0 21 20" fill="none" xmlns="http://www.w3.org/2000/svg">
<path d="M17.9298 10.98C17.9698 10.66 17.9998 10.34 17.9998 10C17.9998 9.66 17.9698 9.34 17.9298 9.02L20.0398 7.37C20.2298 7.22 20.2798 6.95 20.1598 6.73L18.1598 3.27C18.0398 3.05 17.7698 2.97 17.5498 3.05L15.0598 4.05C14.5398 3.65 13.9798 3.32 13.3698 3.07L12.9898 0.42C12.9598 0.18 12.7498 0 12.4998 0H8.49984C8.24984 0 8.03984 0.18 8.00984 0.42L7.62984 3.07C7.01984 3.32 6.45984 3.66 5.93984 4.05L3.44984 3.05C3.21984 2.96 2.95984 3.05 2.83984 3.27L0.839839 6.73C0.709839 6.95 0.76984 7.22 0.95984 7.37L3.06984 9.02C3.02984 9.34 2.99984 9.67 2.99984 10C2.99984 10.33 3.02984 10.66 3.06984 10.98L0.95984 12.63C0.76984 12.78 0.719839 13.05 0.839839 13.27L2.83984 16.73C2.95984 16.95 3.22984 17.03 3.44984 16.95L5.93984 15.95C6.45984 16.35 7.01984 16.68 7.62984 16.93L8.00984 19.58C8.03984 19.82 8.24984 20 8.49984 20H12.4998C12.7498 20 12.9598 19.82 12.9898 19.58L13.3698 16.93C13.9798 16.68 14.5398 16.34 15.0598 15.95L17.5498 16.95C17.7798 17.04 18.0398 16.95 18.1598 16.73L20.1598 13.27C20.2798 13.05 20.2298 12.78 20.0398 12.63L17.9298 10.98ZM10.4998 13.5C8.56984 13.5 6.99984 11.93 6.99984 10C6.99984 8.07 8.56984 6.5 10.4998 6.5C12.4298 6.5 13.9998 8.07 13.9998 10C13.9998 11.93 12.4298 13.5 10.4998 13.5Z" fill="#525252"/>
</svg>
