<svg width="100" height="101" viewBox="0 0 100 101" fill="none" xmlns="http://www.w3.org/2000/svg">
<g clip-path="url(#clip0_868_13800)">
<path d="M82.918 43.7737C82.918 43.7645 82.9192 43.7553 82.9192 43.7462C82.9192 38.1542 68.1808 1.97461 50.0001 1.97461C31.8194 1.97461 17.0811 38.1544 17.0811 43.7464C17.0811 43.7555 17.082 43.7645 17.0822 43.7737C17.0822 43.7823 17.0811 43.7909 17.0811 43.7995C17.0811 49.0084 39.2768 76.3924 50.0001 76.3924C60.4928 76.3924 82.9192 49.0084 82.9192 43.7995C82.9192 43.7907 82.918 43.7817 82.918 43.7729C82.918 43.7731 82.918 43.7735 82.918 43.7737Z" fill="#135370"/>
<path d="M71.9945 43.0331H68.2559V32.1904H71.9945C73.921 32.1904 75.4829 33.7523 75.4829 35.6789V39.5447C75.4829 41.4712 73.921 43.0331 71.9945 43.0331Z" fill="#F4C892"/>
<path d="M28.0041 43.0331H31.7427V32.1904H28.0041C26.0775 32.1904 24.5156 33.7523 24.5156 35.6789V39.5447C24.5156 41.4712 26.0775 43.0331 28.0041 43.0331Z" fill="#F4C892"/>
<path d="M62.7349 62.3412L60.3766 61.8671C58.7031 61.5308 57.4992 60.0609 57.4992 58.3539V54.9561H42.0734V58.4398C42.0734 60.1466 40.8695 61.6167 39.1961 61.9531L37.2646 62.3412V75.3125H62.7349V62.3412Z" fill="#FFDFB8"/>
<path d="M50 57.5137C38.8632 57.5137 29.835 48.4855 29.835 37.3486V31.6817C29.835 20.5449 38.8632 11.5166 50 11.5166C61.1369 11.5166 70.1651 20.5449 70.1651 31.6817V37.3486C70.1651 48.4855 61.1369 57.5137 50 57.5137Z" fill="#FFDFB8"/>
<path d="M49.9992 11.5166C48.1793 11.5166 46.4162 11.7592 44.7393 12.2111C53.3251 14.525 59.6442 22.3648 59.6442 31.6817V37.3488C59.6442 46.6658 53.3249 54.5055 44.7393 56.8194C46.4164 57.2713 48.1793 57.5139 49.9992 57.5139C61.136 57.5139 70.1643 48.4857 70.1643 37.3488V31.6817C70.1643 20.5449 61.136 11.5166 49.9992 11.5166Z" fill="#F4CFA6"/>
<path d="M50.0001 32.2806C68.151 32.2806 82.8698 38.5698 82.918 43.7737C82.918 43.7645 82.9192 43.7553 82.9192 43.7462C82.9192 38.1542 68.1808 1.97461 50.0001 1.97461C31.8194 1.97461 17.0811 38.1544 17.0811 43.7464C17.0811 43.7555 17.082 43.7647 17.0822 43.7739C17.1305 38.5698 31.8493 32.2806 50.0001 32.2806Z" fill="#1E608B"/>
<path d="M49.9996 1.97461C48.3988 1.97461 46.8248 2.25625 45.2852 2.77167C57.0265 6.70192 66.7674 24.291 71.0889 35.3316C78.2964 37.6298 82.8907 40.8704 82.9177 43.7737C82.9177 43.7645 82.9189 43.7553 82.9189 43.7462C82.9187 38.1542 68.1803 1.97461 49.9996 1.97461Z" fill="#135370"/>
<path d="M94.4511 96.8232C93.5745 90.3765 90.0111 71.6831 77.7727 66.7722L63.8138 62.4199H36.1855L22.2266 66.7722C9.98826 71.6831 6.42481 90.3765 5.54825 96.8232C5.38986 97.9882 6.29825 99.0243 7.47402 99.0243H92.5253C93.7011 99.0243 94.6095 97.9882 94.4511 96.8232Z" fill="#1E608B"/>
<path d="M94.4506 96.8232C93.5741 90.3765 90.0106 71.6831 77.7723 66.7722L63.8134 62.4199H53.0654L67.0243 66.7722C81.8863 72.7359 83.955 99.0241 83.955 99.0243H92.5249C93.7006 99.0243 94.609 97.9882 94.4506 96.8232Z" fill="#135370"/>
<path d="M77.5974 61.7139H22.4017C20.5699 61.7139 19.085 63.1988 19.085 65.0306V96.4825H80.9142V65.0304C80.9142 63.1988 79.4292 61.7139 77.5974 61.7139Z" fill="#CFCFCF"/>
<path d="M77.5972 61.7139H67.0771C68.909 61.7139 70.3939 63.1988 70.3939 65.0306V96.4825H80.914V65.0304C80.914 63.1988 79.429 61.7139 77.5972 61.7139Z" fill="#C2C4C6"/>
<path d="M82.9098 94.0156H17.09C15.8418 94.0156 14.8301 95.0275 14.8301 96.2756V96.7644C14.8301 98.0127 15.842 99.0244 17.09 99.0244H82.9098C84.1581 99.0244 85.1698 98.0125 85.1698 96.7644V96.2756C85.1698 95.0273 84.1581 94.0156 82.9098 94.0156Z" fill="#9C9DA0"/>
<path d="M82.9101 94.0156H74.585V99.0244H82.9101C84.1583 99.0244 85.17 98.0125 85.17 96.7644V96.2756C85.17 95.0273 84.1583 94.0156 82.9101 94.0156Z" fill="#8D8F93"/>
<path d="M50 83.8251C52.5629 83.8251 54.6406 81.7475 54.6406 79.1845C54.6406 76.6216 52.5629 74.5439 50 74.5439C47.437 74.5439 45.3594 76.6216 45.3594 79.1845C45.3594 81.7475 47.437 83.8251 50 83.8251Z" fill="white"/>
<path d="M44.2161 42.7845H36.7467C35.9238 42.7845 35.2568 42.1175 35.2568 41.2947V37.0426C35.2568 36.2197 35.9238 35.5527 36.7467 35.5527H46.0569C46.8798 35.5527 47.5468 36.2197 47.5468 37.0426V39.4539C47.547 41.2933 46.0558 42.7845 44.2161 42.7845Z" fill="#4D4D4D"/>
<path d="M55.7847 42.7845H63.2542C64.0771 42.7845 64.744 42.1175 64.744 41.2947V37.0426C64.744 36.2197 64.0771 35.5527 63.2542 35.5527H53.9439C53.1211 35.5527 52.4541 36.2197 52.4541 37.0426V39.4539C52.4539 41.2933 53.9451 42.7845 55.7847 42.7845Z" fill="#4D4D4D"/>
<path d="M50 73.0693C46.6281 73.0693 43.8848 75.8127 43.8848 79.1845C43.8848 82.5566 46.6281 85.2999 50 85.2999C53.372 85.2999 56.1154 82.5566 56.1154 79.1845C56.1154 75.8127 53.372 73.0693 50 73.0693ZM50 82.3505C48.2545 82.3505 46.8342 80.9302 46.8342 79.1845C46.8342 77.4388 48.2545 76.0187 50 76.0187C51.7457 76.0187 53.166 77.439 53.166 79.1845C53.1658 80.9302 51.7457 82.3505 50 82.3505Z" fill="black"/>
<path d="M95.9128 96.6246C95.5237 93.7643 94.5518 88.1102 92.4128 82.3796C89.9072 75.6668 86.5371 70.7282 82.3894 67.6823V65.0307C82.3894 62.3888 80.2401 60.2392 77.5979 60.2392H73.9829C79.451 53.9013 84.3937 46.7776 84.3937 43.7995C84.3937 43.7901 84.3937 43.7805 84.3935 43.7711C84.3937 43.7622 84.3937 43.7538 84.3937 43.7463C84.3937 40.6825 80.7816 30.3927 74.8993 20.5948C74.4801 19.8965 73.5741 19.6702 72.8758 20.0895C72.1776 20.5088 71.9514 21.4147 72.3706 22.1129C75.793 27.8135 78.3073 33.465 79.8102 37.6276C76.9975 35.8054 73.0491 34.2171 68.4173 33.0324C68.2796 32.9968 68.1413 32.9619 68.0028 32.9273C67.9067 32.9035 67.8097 32.8802 67.7132 32.8568C63.2652 31.766 58.4355 31.0966 53.4731 30.8832C53.3698 30.8787 53.2662 30.8742 53.1627 30.8701C52.9504 30.8617 52.7381 30.8531 52.5254 30.8466C52.1891 30.8359 51.852 30.8277 51.5143 30.8212C51.4012 30.8191 51.2879 30.8175 51.1748 30.8158C50.784 30.8099 50.3926 30.8058 50.0003 30.8058C49.587 30.8058 49.1749 30.8097 48.7633 30.8162C48.5592 30.8193 48.3559 30.8248 48.1522 30.8294C47.9637 30.8339 47.7751 30.8378 47.5872 30.8437C47.297 30.8523 47.0077 30.8632 46.7182 30.8752C46.6458 30.8781 46.5733 30.881 46.5011 30.8843C41.2407 31.1125 36.1297 31.8521 31.4654 33.0636C31.1938 33.1337 30.9244 33.2048 30.6576 33.2777C30.6063 33.2917 30.5551 33.306 30.5037 33.3203C26.3409 34.4685 22.785 35.9466 20.194 37.6239C20.2667 37.423 20.3423 37.2177 20.42 37.0089C20.4435 36.946 20.4679 36.8817 20.4917 36.8181C20.5536 36.6534 20.6171 36.4866 20.6821 36.3175C20.7089 36.2478 20.7354 36.1784 20.7628 36.1079C20.852 35.8778 20.9431 35.6448 21.0382 35.4066C22.8983 30.7406 25.3641 25.8135 27.9813 21.5328C32.11 14.7792 40.4609 3.44939 50.0001 3.44939C57.5248 3.44939 64.2595 10.4857 68.5841 16.3884C69.0655 17.0454 69.9882 17.1878 70.6452 16.7065C71.3022 16.2251 71.4446 15.3022 70.9632 14.6452C67.8728 10.4269 64.6816 7.09409 61.4785 4.73942C57.6517 1.92636 53.7899 0.5 50.0001 0.5C44.2442 0.5 35.3152 3.8822 25.4645 19.9944C19.3567 29.9847 15.6064 40.5614 15.6064 43.7463C15.6064 43.7559 15.6064 43.7653 15.6066 43.7749C15.6064 43.7836 15.6064 43.792 15.6064 43.7997C15.6064 46.7967 20.513 53.9158 25.9422 60.2394H22.4024C19.7605 60.2394 17.6109 62.3888 17.6109 65.0309V67.6837C13.8478 70.4483 10.715 74.7844 8.29335 80.5912C7.97968 81.3429 8.33496 82.2064 9.08671 82.5199C9.83787 82.8333 10.7017 82.4783 11.0154 81.7265C12.8293 77.3771 15.0408 73.9576 17.6107 71.5213V92.5415H17.09C15.0308 92.5415 13.3552 94.2168 13.3552 96.2762V96.7651C13.3552 96.8969 13.3625 97.027 13.3759 97.1555C13.3804 97.1981 13.3894 97.2393 13.3953 97.2815C13.407 97.3662 13.4183 97.4512 13.4357 97.534C13.4369 97.5395 13.4373 97.5451 13.4384 97.5506H7.47442C7.28868 97.5506 7.17286 97.4498 7.12051 97.3899C7.06875 97.3305 6.98555 97.2039 7.01016 97.0229C7.29199 94.9496 7.83808 91.7188 8.83886 88.1007C9.05604 87.3157 8.5957 86.5032 7.81074 86.2862C7.02579 86.0693 6.21349 86.5296 5.9963 87.3144C4.95178 91.0911 4.38186 94.4623 4.08772 96.6254C3.95511 97.6016 4.25081 98.5873 4.89905 99.3297C5.54845 100.073 6.48731 100.5 7.47461 100.5H92.5259C93.5132 100.5 94.4522 100.073 95.1016 99.3297C95.7497 98.5863 96.0454 97.6008 95.9128 96.6246ZM71.2718 41.3276C71.285 41.2567 71.2985 41.1858 71.311 41.1145C71.328 41.0175 71.3436 40.9202 71.3595 40.8231C71.3727 40.7417 71.3862 40.6602 71.3985 40.5784C71.412 40.4889 71.4239 40.3993 71.4362 40.3095C71.4485 40.2206 71.461 40.1317 71.4721 40.0425C71.4829 39.9565 71.4921 39.8704 71.5018 39.7843C71.5122 39.6921 71.5231 39.5999 71.5323 39.5073C71.5409 39.4204 71.5479 39.3331 71.5555 39.246C71.5636 39.1544 71.5721 39.0632 71.579 38.9712C71.5827 38.9222 71.5854 38.8729 71.5888 38.8237C71.5954 38.7671 71.5997 38.7099 71.5997 38.6515C71.5997 38.6507 71.5995 38.6497 71.5995 38.6489C71.6038 38.577 71.6089 38.5054 71.6126 38.4333C71.618 38.3243 71.6214 38.2149 71.6251 38.1058C71.6276 38.0347 71.6311 37.964 71.6329 37.8927C71.6374 37.7116 71.6397 37.5304 71.6397 37.3491V37.0673C71.9514 37.1747 72.2593 37.2849 72.5635 37.3972C73.0592 37.58 73.5424 37.7673 74.0089 37.9603V39.5448C74.0089 40.6552 73.1055 41.5585 71.9952 41.5585H71.229C71.2444 41.4819 71.2575 41.4046 71.2718 41.3276ZM71.9954 44.5081C74.7321 44.5081 76.9584 42.2817 76.9584 39.545V39.3565C80.0147 41.0294 81.4328 42.6747 81.4432 43.7874C81.4432 43.7885 81.4434 43.7895 81.4434 43.7907C81.4436 43.8018 81.4436 43.8129 81.4439 43.8241C81.4033 45.4676 77.3549 52.1695 70.0493 60.2394H60.1449C59.4369 59.8868 58.9742 59.1564 58.9742 58.3546V57.0386C64.2958 54.6035 68.4648 50.0727 70.4212 44.5082H71.9954V44.5081ZM68.6903 36.1567V37.1771H66.2183V37.0427C66.2183 36.4441 66.0386 35.8874 65.7323 35.4208C66.8138 35.6614 67.8021 35.9109 68.6903 36.1567ZM63.2687 37.0425V38.4067C63.2552 38.4866 63.2466 38.5681 63.2466 38.6517C63.2466 38.7352 63.2552 38.8167 63.2687 38.8966V41.2946C63.2687 41.303 63.2619 41.3098 63.2535 41.3098H55.784C54.7606 41.3098 53.928 40.477 53.928 39.4536V37.0423C53.928 37.0339 53.9348 37.0271 53.9432 37.0271H63.2535C63.2619 37.0274 63.2687 37.0343 63.2687 37.0425ZM50.0001 33.7552C52.3715 33.7552 54.7254 33.8669 57.0303 34.0779H53.9434C52.3787 34.0779 51.0965 35.2972 50.9893 36.8349H49.0112C48.904 35.297 47.6218 34.0779 46.0571 34.0779H42.9702C45.2747 33.8671 47.6286 33.7552 50.0001 33.7552ZM36.7312 37.0425C36.7312 37.0341 36.738 37.0273 36.7464 37.0273H46.0567C46.0651 37.0273 46.072 37.0341 46.072 37.0425V39.4538C46.072 40.4772 45.2393 41.31 44.2159 41.31H36.7464C36.738 41.31 36.7312 41.3032 36.7312 41.2948V37.0425ZM36.7464 44.2594H44.2159C46.7546 44.2594 48.8381 42.2803 49.0089 39.7845H50.9913C51.162 42.2805 53.2455 44.2594 55.7842 44.2594H63.2537C64.8884 44.2594 66.2183 42.9296 66.2183 41.2946V40.1263H68.4831C68.4573 40.2985 68.4304 40.4708 68.3999 40.6423C68.3915 40.6889 68.3821 40.7354 68.3733 40.7821C68.3466 40.9257 68.3183 41.0686 68.2882 41.2114C68.2706 41.2942 68.2526 41.3768 68.2341 41.4594C68.2106 41.5635 68.1859 41.6673 68.1607 41.7708C68.1196 41.9389 68.0765 42.1061 68.0312 42.2723C68.0122 42.3417 67.9939 42.411 67.9743 42.4801C66.3501 48.1613 62.0982 52.7439 56.624 54.8255C56.5318 54.8605 56.4396 54.8955 56.3471 54.9291C56.1943 54.9843 56.0406 55.0375 55.8859 55.089C55.7479 55.1349 55.6094 55.1795 55.4703 55.222C55.3555 55.2572 55.2404 55.292 55.1246 55.3252C54.9457 55.3761 54.766 55.424 54.5858 55.4695C54.4797 55.4964 54.3733 55.5226 54.2664 55.5476C54.0738 55.5927 53.8807 55.6347 53.6866 55.6736C53.5928 55.6923 53.4987 55.7103 53.4045 55.7277C53.1951 55.7662 52.985 55.8019 52.7741 55.8334C52.6971 55.8449 52.62 55.8552 52.5428 55.8658C52.3133 55.897 52.0832 55.9251 51.852 55.9478C51.7963 55.9533 51.7403 55.9578 51.6844 55.9627C51.4323 55.9851 51.1795 56.0041 50.9256 56.0164C50.8954 56.0179 50.8647 56.0185 50.8344 56.0199C50.5571 56.032 50.2792 56.0394 50.0001 56.0394C41.473 56.0394 34.2615 50.2994 32.026 42.4803C32.0063 42.4112 31.9879 42.3419 31.9691 42.2725C31.9236 42.1063 31.8805 41.9389 31.8396 41.771C31.8145 41.6673 31.7897 41.5635 31.7662 41.4596C31.7477 41.3772 31.7295 41.2946 31.7121 41.2116C31.682 41.0688 31.6537 40.9257 31.627 40.7823C31.6182 40.7356 31.6088 40.6893 31.6004 40.6425C31.5699 40.471 31.5428 40.2989 31.5172 40.1264H33.782V41.2948C33.7818 42.9296 35.1117 44.2594 36.7464 44.2594ZM56.3924 60.2392H43.2165C43.4321 59.6743 43.5481 59.0663 43.5481 58.4404V58.0107C43.8915 58.1181 44.2378 58.2132 44.5856 58.3031C44.6032 58.3076 44.6208 58.3119 44.6384 58.3163C44.9378 58.3929 45.2388 58.4626 45.5411 58.5261C45.5893 58.5363 45.6376 58.5468 45.686 58.5566C45.8331 58.5863 45.9804 58.6148 46.1282 58.6415C46.2065 58.6558 46.2854 58.6685 46.3639 58.682C46.5759 58.7177 46.7882 58.7509 47.0014 58.7804C47.1206 58.797 47.2401 58.8132 47.3598 58.8279C47.4678 58.8409 47.576 58.8536 47.6844 58.865C47.8692 58.8847 48.0546 58.9023 48.2407 58.9173C48.3171 58.9234 48.3934 58.929 48.47 58.9343C48.6671 58.9482 48.8647 58.9591 49.0631 58.9675C49.1335 58.9704 49.2038 58.9732 49.2743 58.9755C49.5155 58.9835 49.7571 58.989 50.0003 58.989C50.229 58.989 50.4565 58.9841 50.6834 58.9771C50.7543 58.9749 50.8252 58.9718 50.8961 58.9689C51.0594 58.9622 51.2223 58.9536 51.3846 58.9433C51.4584 58.9386 51.5325 58.9345 51.6061 58.9292C51.8149 58.9138 52.0229 58.8958 52.2299 58.8745C52.3225 58.8652 52.4145 58.8535 52.5069 58.8427C52.6301 58.8284 52.7532 58.8136 52.8758 58.7972C52.9885 58.7822 53.101 58.7665 53.2135 58.7497C53.3119 58.7351 53.41 58.7189 53.5078 58.7029C53.7387 58.6652 53.9686 58.6238 54.1979 58.5786C54.2594 58.5665 54.3211 58.5552 54.3824 58.5425C54.524 58.5134 54.6651 58.4822 54.8061 58.4501C54.8633 58.437 54.9203 58.4238 54.9774 58.4103C55.3283 58.3275 55.6781 58.239 56.025 58.1384V58.3544C56.0248 59.0122 56.1543 59.6503 56.3924 60.2392ZM31.3098 36.1567C32.198 35.9109 33.1863 35.6614 34.268 35.4208C33.9617 35.8874 33.782 36.4441 33.782 37.0427V37.1771H31.31L31.3098 36.1567ZM25.9911 37.9604C26.4575 37.7675 26.9409 37.58 27.4366 37.3972C27.7409 37.2849 28.0485 37.1747 28.3602 37.0675V37.3493C28.3602 37.5308 28.3625 37.7118 28.367 37.8929C28.3688 37.9642 28.3723 38.0349 28.3748 38.106C28.3785 38.2151 28.3819 38.3245 28.3873 38.4335C28.3916 38.5194 28.3977 38.605 28.403 38.6905C28.4035 38.6985 28.4039 38.7065 28.4043 38.7145C28.4057 38.7474 28.4069 38.7802 28.4102 38.8124C28.4137 38.8653 28.4166 38.9184 28.4205 38.9714C28.4274 39.0632 28.436 39.1546 28.444 39.2462C28.4516 39.3333 28.4586 39.4204 28.4672 39.5075C28.4764 39.6001 28.4873 39.6923 28.4977 39.7845C28.5075 39.8706 28.5166 39.9567 28.5274 40.0427C28.5385 40.1319 28.5512 40.2206 28.5633 40.3096C28.5756 40.3993 28.5875 40.4889 28.601 40.5786C28.6133 40.6604 28.6268 40.7417 28.6401 40.8233C28.6559 40.9206 28.6715 41.0178 28.6885 41.1147C28.701 41.186 28.7147 41.2567 28.7278 41.3278C28.742 41.4048 28.7553 41.4819 28.7705 41.5589H28.0045C26.8942 41.5589 25.9909 40.6555 25.9909 39.5452V37.9604H25.9911ZM18.556 43.8208C18.5564 43.8102 18.5564 43.801 18.5566 43.7913C18.5566 43.7899 18.5568 43.7887 18.5568 43.7876C18.5671 42.6747 19.9853 41.0296 23.0415 39.3567V39.5452C23.0415 42.2819 25.268 44.5082 28.0047 44.5082H29.5787C31.4824 49.9229 35.4812 54.3593 40.5988 56.838V58.4404C40.5988 59.1812 40.2072 59.8607 39.5829 60.2392H29.8676C22.8768 52.4767 18.5921 45.5075 18.556 43.8208ZM22.4022 63.1886H77.5979C78.6135 63.1886 79.4399 64.0149 79.4399 65.0305V92.5409H20.5602V65.0307C20.5602 64.0149 21.3864 63.1886 22.4022 63.1886ZM83.6951 96.7645C83.6951 97.1975 83.3428 97.5498 82.91 97.5498H17.0902C16.6572 97.5498 16.305 97.1975 16.305 96.7645V96.2756C16.305 95.8426 16.6574 95.4905 17.0902 95.4905H82.91C83.343 95.4905 83.6951 95.8428 83.6951 96.2756V96.7645ZM92.8798 97.3889C92.8273 97.449 92.7114 97.5498 92.5257 97.5498H86.5617C86.5629 97.5443 86.5632 97.5387 86.5644 97.5332C86.5818 97.4504 86.5931 97.3654 86.6048 97.2807C86.6107 97.2385 86.6197 97.1973 86.6242 97.1547C86.6377 97.0264 86.6449 96.8961 86.6449 96.7643V96.2754C86.6449 94.2163 84.9695 92.5407 82.9101 92.5407H82.3896V71.5248C89.9492 78.7181 92.3919 92.6213 92.9903 97.0221C93.0148 97.2029 92.9315 97.3295 92.8798 97.3889Z" fill="black"/>
</g>
<defs>
<clipPath id="clip0_868_13800">
<rect width="100" height="100" fill="white" transform="translate(0 0.5)"/>
</clipPath>
</defs>
</svg>
