<svg width="18" height="16" viewBox="0 0 18 16" fill="none" xmlns="http://www.w3.org/2000/svg">
<path d="M13.6 8.73723C14.6777 8.73723 15.6535 8.79846 16.2538 8.91249C16.2631 8.91249 16.8124 9.02546 16.9955 9.0983C17.2597 9.21233 17.4834 9.41821 17.6259 9.67582C17.7278 9.8817 17.7778 10.0992 17.7778 10.3262C17.7684 10.5627 17.6155 11.0072 17.5437 11.1824C17.0974 12.3375 15.6327 14.5451 14.7391 15.3919C14.5966 15.5355 14.4239 15.6907 14.3833 15.7318C14.1586 15.9071 13.885 16 13.5906 16C13.3253 16 13.0611 15.9176 12.8478 15.7519C12.7371 15.6727 12.5754 15.5151 12.5014 15.4413L12.4619 15.4014C11.536 14.5356 10.1441 12.3786 9.69681 11.2848C9.68727 11.2848 9.46444 10.7392 9.41936 10.41L9.41177 10.3262V10.285C9.41177 9.80991 9.676 9.36648 10.1036 9.13948C10.3376 9.01595 11.018 8.90193 11.0284 8.89137C11.638 8.79846 12.5732 8.73723 13.6 8.73723ZM4.18269 8.79158C4.60869 8.79158 4.95935 9.11657 5.00727 9.53578L5.01285 9.63408L5.24067 13.7041C5.24067 14.2974 4.76734 14.7778 4.18269 14.7778C3.63459 14.7778 3.18341 14.3556 3.12915 13.8139L3.12368 13.7041L3.35254 9.63408C3.35254 9.16849 3.72393 8.79158 4.18269 8.79158ZM4.18821 0C4.4514 0 4.71564 0.0823498 4.92994 0.247049C5.02226 0.313695 5.14994 0.434366 5.23272 0.515497L5.31588 0.59862C6.2407 1.4654 7.63365 3.62128 8.08097 4.71505C8.08956 4.71505 8.31318 5.26153 8.3584 5.59088L8.36601 5.67475V5.71592C8.36601 6.18996 8.10074 6.63338 7.67422 6.86037C7.44016 6.98495 6.75981 7.09792 6.7494 7.10848C6.13979 7.20139 5.20457 7.26262 4.17781 7.26262C3.10006 7.26262 2.12427 7.20139 1.52403 7.08736C1.51362 7.08736 0.965389 6.97439 0.782298 6.90155C0.518064 6.78858 0.294402 6.58165 0.151882 6.32404C0.0499339 6.11817 0 5.90068 0 5.67475C0.00936261 5.4372 0.162285 4.99378 0.233025 4.81852C0.68035 3.66245 2.14404 1.45485 3.03869 0.609177C3.18121 0.464537 3.3539 0.30934 3.39447 0.268165C3.61813 0.0929075 3.89277 0 4.18821 0ZM13.5953 1.22222C14.1434 1.22222 14.5937 1.64443 14.6478 2.18612L14.6533 2.29596L14.4254 6.36603C14.4254 6.83163 14.0541 7.20855 13.5953 7.20855C13.1693 7.20855 12.8186 6.88355 12.7707 6.46434L12.7651 6.36603L12.5363 2.29596C12.5363 1.70261 13.0106 1.22222 13.5953 1.22222Z" fill="#3C81BC"/>
</svg>
