<svg width="25" height="24" viewBox="0 0 25 24" fill="none" xmlns="http://www.w3.org/2000/svg">
<g clip-path="url(#clip0_123_90)">
<path d="M6.5 19C6.5 20.1 7.4 21 8.5 21H16.5C17.6 21 18.5 20.1 18.5 19V9C18.5 7.9 17.6 7 16.5 7H8.5C7.4 7 6.5 7.9 6.5 9V19ZM9.5 9H15.5C16.05 9 16.5 9.45 16.5 10V18C16.5 18.55 16.05 19 15.5 19H9.5C8.95 19 8.5 18.55 8.5 18V10C8.5 9.45 8.95 9 9.5 9ZM16 4L15.29 3.29C15.11 3.11 14.85 3 14.59 3H10.41C10.15 3 9.89 3.11 9.71 3.29L9 4H6.5C5.95 4 5.5 4.45 5.5 5C5.5 5.55 5.95 6 6.5 6H18.5C19.05 6 19.5 5.55 19.5 5C19.5 4.45 19.05 4 18.5 4H16Z" fill="#161616"/>
</g>
<defs>
<clipPath id="clip0_123_90">
<rect width="24" height="24" fill="white" transform="translate(0.5)"/>
</clipPath>
</defs>
</svg>
