<svg width="17" height="18" viewBox="0 0 17 18" fill="none" xmlns="http://www.w3.org/2000/svg">
<path d="M4.20001 8.2V5C4.20001 3.93913 4.62144 2.92172 5.37158 2.17157C6.12173 1.42143 7.13914 1 8.20001 1C9.26088 1 10.2783 1.42143 11.0284 2.17157C11.7786 2.92172 12.2 3.93913 12.2 5V5.09375M4 17H12.4C14.0569 17 15.4 15.6569 15.4 14V11.2C15.4 9.54315 14.0569 8.2 12.4 8.2H4.00001C2.34316 8.2 1.00001 9.54314 1.00001 11.2L1 14C0.999995 15.6568 2.34314 17 4 17Z" stroke="#131214" stroke-width="1.5" stroke-linecap="round" stroke-linejoin="round"/>
</svg>
